# Blender 4.0.2
# www.blender.org
mtllib backdrop.mtl
o Cube
v 5.000000 -1.000000 3.000000
v 5.000000 3.000000 -1.354818
v -5.000000 -1.000000 3.000000
v -5.000000 3.000000 -1.354817
v 5.000000 -1.000000 -1.183362
v 5.000000 -0.828544 -1.354818
v 5.000000 -0.986949 -1.248975
v 5.000000 -0.949782 -1.304599
v 5.000000 -0.894157 -1.341766
v -5.000000 -0.828544 -1.354817
v -5.000000 -1.000000 -1.183361
v -5.000000 -0.894157 -1.341766
v -5.000000 -0.949782 -1.304599
v -5.000000 -0.986949 -1.248975
vn -0.0000 0.7071 0.7071
vn -0.0000 0.9239 0.3827
vn -0.0000 0.3827 0.9239
vn -0.0000 0.0980 0.9952
vn -0.0000 -0.0000 1.0000
vn -0.0000 1.0000 -0.0000
vn -0.0000 0.9952 0.0980
vt 0.385879 0.991843
vt 0.390913 0.016764
vt 0.392419 0.991911
vt 0.379340 0.991776
vt 0.384402 0.016802
vt 0.372801 0.991708
vt 0.377891 0.016839
vt 0.000090 0.989054
vt 0.371380 0.016877
vt 0.000000 0.000000
vt 0.397424 0.016726
vt 0.398960 0.991980
vt 0.000090 0.017931
s 1
g off
f 8/1/1 14/2/2 7/3/2
f 9/4/3 13/5/1 8/1/1
f 6/6/4 12/7/3 9/4/3
f 2/8/5 10/9/4 6/6/4
f 1/10/6 11/11/7 3/10/6
f 7/3/2 11/11/7 5/12/7
f 8/1/1 13/5/1 14/2/2
f 9/4/3 12/7/3 13/5/1
f 6/6/4 10/9/4 12/7/3
f 2/8/5 4/13/5 10/9/4
f 1/10/6 5/12/7 11/11/7
f 7/3/2 14/2/2 11/11/7
o Cube.003
v 2.601920 -1.000000 1.585489
v 1.851920 -1.000000 1.585490
v 2.601917 -1.000000 0.835489
v 1.851917 -1.000000 0.835489
v 1.899046 -0.697767 0.882619
v 2.601917 -0.697767 1.585489
v 1.851917 -0.697767 1.585489
v 1.851917 -0.697767 0.835489
v 2.601917 -0.697767 0.835489
v 2.554790 -0.697767 1.538360
v 1.899046 -0.697767 1.538360
v 2.554787 -0.697767 0.882619
v 2.554790 -0.814802 0.882619
v 1.899050 -0.814802 0.882619
v 1.899050 -0.814802 1.538360
v 2.554790 -0.814802 1.538360
v 1.851920 -1.000000 1.561694
v 1.851917 -0.697767 1.561693
v 2.601920 -1.000000 1.561693
v 2.601917 -0.697767 1.561693
v 1.899046 -0.697767 1.517555
v 2.554790 -0.697767 1.517554
v 1.899050 -0.814802 1.517555
v 2.554790 -0.814802 1.517555
v 1.851917 -1.000000 0.856355
v 1.851917 -0.697767 0.856355
v 1.899046 -0.697767 0.900862
v 1.899050 -0.814802 0.900862
v 2.601917 -1.000000 0.856354
v 2.601917 -0.697767 0.856354
v 2.554787 -0.697767 0.900862
v 2.554790 -0.814802 0.900862
v 1.880745 -0.697767 0.835489
v 1.880745 -1.000000 0.835489
v 1.880749 -1.000000 1.585490
v 1.880745 -0.697767 1.585489
v 1.924256 -0.814802 0.882619
v 1.924256 -0.814802 1.538360
v 1.924252 -0.697767 1.538360
v 1.924252 -0.697767 0.882619
v 1.924256 -0.814802 1.517555
v 1.924256 -0.814802 0.900862
v 2.580113 -0.697767 0.835489
v 2.580113 -1.000000 0.835489
v 2.580116 -1.000000 1.585489
v 2.580113 -0.697767 1.585489
v 2.535727 -0.814802 0.882619
v 2.535727 -0.814802 1.538360
v 2.535727 -0.697767 1.538360
v 2.535723 -0.697767 0.882619
v 2.535727 -0.814802 1.517555
v 2.535727 -0.814802 0.900862
v 2.564999 -0.697767 0.872407
v 2.565001 -0.697767 1.548571
v 1.888835 -0.697767 0.872407
v 1.888835 -0.697767 1.548571
v 2.565001 -0.697767 1.527117
v 1.888835 -0.697767 1.527118
v 1.888835 -0.697767 0.891219
v 2.564999 -0.697767 0.891219
v 1.914825 -0.697767 0.872407
v 1.914825 -0.697767 1.548571
v 2.545344 -0.697767 1.548571
v 2.545341 -0.697767 0.872407
v 2.594081 -0.697767 1.554354
v 2.594080 -0.697767 0.863755
v 1.887979 -0.697767 1.577653
v 2.572733 -0.697767 1.577653
v 2.594080 -0.697767 0.843325
v 2.594081 -0.697767 1.577653
v 1.859753 -0.697767 0.843326
v 1.859753 -0.697767 1.577653
v 1.859753 -0.697767 1.554354
v 1.859753 -0.697767 0.863755
v 1.887979 -0.697767 0.843326
v 2.572732 -0.697767 0.843325
v 1.851917 -0.707623 0.835489
v 1.851917 -0.707622 1.585489
v 2.601917 -0.707623 0.835489
v 2.601917 -0.707623 1.585489
v 2.601917 -0.707623 1.561693
v 1.851917 -0.707622 1.561693
v 2.601917 -0.707623 0.856354
v 1.851917 -0.707623 0.856355
v 1.880745 -0.707622 1.585489
v 1.880745 -0.707623 0.835489
v 2.580113 -0.707623 1.585489
v 2.580113 -0.707623 0.835489
v 2.554787 -0.709602 0.882619
v 2.554790 -0.709602 1.538360
v 1.899047 -0.709602 1.538360
v 1.899046 -0.709602 0.882619
v 1.899047 -0.709602 1.517555
v 2.554790 -0.709602 1.517554
v 1.899046 -0.709602 0.900862
v 2.554787 -0.709602 0.900862
v 1.924252 -0.709602 1.538360
v 1.924252 -0.709602 0.882619
v 2.535727 -0.709602 1.538360
v 2.535724 -0.709602 0.882619
vn 0.7071 -0.0000 -0.7071
vn -0.0000 -0.0000 -1.0000
vn -0.0000 -0.0000 1.0000
vn -0.7071 -0.0000 0.7071
vn -0.7071 -0.0000 -0.7071
vn -1.0000 -0.0000 -0.0000
vn 0.7071 -0.0000 0.7071
vn 1.0000 -0.0000 -0.0000
vn -0.7071 0.7071 -0.0000
vn -0.0000 1.0000 -0.0000
vn -0.0000 0.7071 0.7071
vn -0.0000 0.7071 -0.7071
vn 0.7071 0.7071 -0.0000
vn 0.5773 0.5774 -0.5774
vn -0.5774 0.5773 -0.5774
vn -0.3015 0.9045 -0.3015
vn 0.5774 0.5774 -0.5774
vn 0.5773 0.5774 0.5774
vn 0.5774 0.5774 0.5774
vn -0.3015 0.9045 0.3015
vn 0.3015 0.9045 0.3015
vn 0.3015 0.9045 -0.3015
vn -0.5773 0.5773 -0.5774
vn -0.5774 0.5774 0.5773
vn -0.5774 0.5773 0.5773
vt 0.613793 0.740860
vt 0.597732 0.753901
vt 0.613796 0.739733
vt 0.650597 0.703048
vt 0.668118 0.682774
vt 0.668168 0.685579
vt 0.613901 0.702112
vt 0.601890 0.688705
vt 0.614918 0.702098
vt 0.653806 0.739302
vt 0.667128 0.755762
vt 0.652537 0.739351
vt 0.648747 0.702244
vt 0.649595 0.702546
vt 0.648487 0.702556
vt 0.622282 0.732810
vt 0.617081 0.737897
vt 0.617071 0.736939
vt 0.650005 0.703637
vt 0.649723 0.703923
vt 0.651034 0.735614
vt 0.650427 0.735947
vt 0.650351 0.735033
vt 0.617455 0.738343
vt 0.618009 0.737843
vt 0.622930 0.733403
vt 0.622894 0.732729
vt 0.621690 0.710207
vt 0.616736 0.704948
vt 0.617601 0.704935
vt 0.652921 0.738383
vt 0.652045 0.738798
vt 0.651708 0.738435
vt 0.614369 0.704011
vt 0.614683 0.702856
vt 0.614683 0.704285
vt 0.615758 0.739983
vt 0.615420 0.740310
vt 0.644567 0.708004
vt 0.646843 0.704520
vt 0.647829 0.704506
vt 0.644270 0.730525
vt 0.643580 0.729964
vt 0.644278 0.729870
vt 0.651119 0.736557
vt 0.649369 0.736009
vt 0.615654 0.702847
vt 0.599660 0.755846
vt 0.614906 0.740816
vt 0.650468 0.701599
vt 0.665957 0.682967
vt 0.597664 0.755849
vt 0.615358 0.702549
vt 0.614695 0.740028
vt 0.614337 0.740354
vt 0.643820 0.708076
vt 0.643573 0.730619
vt 0.650021 0.736616
vt 0.649308 0.701615
vt 0.643811 0.708942
vt 0.644555 0.708869
vt 0.614695 0.738948
vt 0.621738 0.711099
vt 0.621036 0.710270
vt 0.648309 0.705359
vt 0.647929 0.705714
vt 0.652824 0.737341
vt 0.653181 0.737685
vt 0.616749 0.706214
vt 0.653709 0.738206
vt 0.669367 0.753637
vt 0.613897 0.703602
vt 0.599994 0.688874
vt 0.669404 0.755759
vt 0.653280 0.738747
vt 0.614338 0.739256
vt 0.621085 0.711162
vt 0.599905 0.691449
vt 0.616492 0.738394
vt 0.616020 0.737805
vt 0.616485 0.737404
vt 0.651499 0.736063
vt 0.651587 0.737032
vt 0.648676 0.704986
vt 0.615851 0.705301
vt 0.616261 0.705657
vt 0.617014 0.738769
vt 0.616025 0.738819
vt 0.616252 0.704349
vt 0.616754 0.703954
vt 0.617141 0.704342
vt 0.647522 0.703713
vt 0.647183 0.704120
vt 0.650459 0.737088
vt 0.648196 0.704112
vt 0.615844 0.703961
vt 0.648560 0.703705
vt 0.614370 0.702558
vt 0.649874 0.702234
vt 0.622319 0.733485
s 1
g off
f 93/14/8 58/15/9 102/16/9
f 99/17/10 16/18/11 49/19/10
f 91/20/12 39/21/13 98/22/13
f 94/23/14 33/24/15 95/25/15
f 32/26/16 86/27/17 87/28/17
f 61/29/18 103/30/11 114/31/10
f 86/27/17 50/32/18 81/33/17
f 63/34/19 104/35/12 113/36/9
f 45/37/16 103/30/11 110/38/13
f 46/39/16 61/29/18 66/40/17
f 42/41/20 106/42/14 109/43/15
f 84/44/17 34/45/20 79/46/17
f 47/47/19 85/48/17 89/49/17
f 80/50/17 34/45/20 44/51/20
f 29/52/21 107/53/15 105/54/8
f 30/55/22 65/56/17 62/57/19
f 24/58/23 108/59/13 104/35/12
f 88/60/17 32/26/16 87/28/17
f 95/25/15 43/61/15 97/62/15
f 92/63/11 31/64/13 16/18/11
f 97/62/15 17/65/8 93/14/8
f 85/48/17 40/66/16 88/60/17
f 83/67/17 44/51/20 23/68/24
f 37/69/20 109/43/15 107/53/15
f 38/70/16 66/40/17 65/56/17
f 36/71/16 110/38/13 108/59/13
f 96/72/13 39/21/13 31/64/13
f 55/73/17 42/41/20 37/69/20
f 52/74/19 37/69/20 29/52/21
f 90/75/17 47/47/19 89/49/17
f 56/76/17 28/77/25 42/41/20
f 105/54/8 53/78/19 111/79/9
f 82/80/17 50/32/18 60/81/18
f 28/77/25 112/82/10 106/42/14
f 101/83/10 49/19/10 59/84/10
f 100/85/9 18/86/12 91/20/12
f 94/23/14 59/84/10 15/87/14
f 84/44/17 60/81/18 20/88/26
f 83/67/17 57/89/19 90/75/17
f 65/56/17 56/76/17 55/73/17
f 62/57/19 55/73/17 52/74/19
f 66/40/17 51/90/18 56/76/17
f 111/79/9 63/34/19 113/36/9
f 51/90/18 114/31/10 112/82/10
f 102/16/9 48/91/9 100/85/9
f 26/92/27 78/93/17 64/94/18
f 24/58/23 77/95/17 68/96/17
f 63/34/19 76/97/17 77/95/17
f 64/94/18 75/98/17 54/99/18
f 26/92/27 74/100/17 67/101/17
f 19/102/28 73/103/17 41/104/20
f 41/104/20 72/105/17 35/106/20
f 45/37/16 71/107/17 74/100/17
f 75/98/17 19/102/28 54/99/18
f 24/58/23 71/107/17 36/71/16
f 25/108/29 76/97/17 53/78/19
f 72/105/17 25/108/29 35/106/20
f 67/101/17 90/75/17 78/93/17
f 68/96/17 82/80/17 84/44/17
f 77/95/17 81/33/17 82/80/17
f 78/93/17 89/49/17 75/98/17
f 67/101/17 80/50/17 83/67/17
f 69/109/17 88/60/17 73/103/17
f 73/103/17 87/28/17 72/105/17
f 74/100/17 79/46/17 80/50/17
f 89/49/17 69/109/17 75/98/17
f 68/96/17 79/46/17 71/107/17
f 70/110/17 81/33/17 76/97/17
f 87/28/17 70/110/17 72/105/17
f 57/89/19 100/85/9 47/47/19
f 60/81/18 94/23/14 20/88/26
f 47/47/19 91/20/12 22/111/30
f 60/81/18 99/17/10 101/83/10
f 40/66/16 96/72/13 32/26/16
f 44/51/20 93/14/8 23/68/24
f 32/26/16 92/63/11 21/112/31
f 34/45/20 97/62/15 44/51/20
f 20/88/26 95/25/15 34/45/20
f 22/111/30 98/22/13 40/66/16
f 50/32/18 92/63/11 99/17/10
f 23/68/24 102/16/9 57/89/19
f 112/82/10 64/94/18 54/99/18
f 52/74/19 113/36/9 62/57/19
f 106/42/14 54/99/18 19/102/28
f 29/52/21 111/79/9 52/74/19
f 108/59/13 46/39/16 38/70/16
f 107/53/15 41/104/20 35/106/20
f 104/35/12 38/70/16 30/55/22
f 105/54/8 35/106/20 25/108/29
f 109/43/15 19/102/28 41/104/20
f 46/39/16 103/30/11 27/113/32
f 113/36/9 30/55/22 62/57/19
f 114/31/10 26/92/27 64/94/18
f 93/14/8 17/65/8 58/15/9
f 99/17/10 92/63/11 16/18/11
f 91/20/12 18/86/12 39/21/13
f 94/23/14 15/87/14 33/24/15
f 32/26/16 21/112/31 86/27/17
f 61/29/18 27/113/32 103/30/11
f 86/27/17 21/112/31 50/32/18
f 63/34/19 24/58/23 104/35/12
f 45/37/16 26/92/27 103/30/11
f 46/39/16 27/113/32 61/29/18
f 42/41/20 28/77/25 106/42/14
f 84/44/17 20/88/26 34/45/20
f 47/47/19 22/111/30 85/48/17
f 80/50/17 79/46/17 34/45/20
f 29/52/21 37/69/20 107/53/15
f 30/55/22 38/70/16 65/56/17
f 24/58/23 36/71/16 108/59/13
f 88/60/17 40/66/16 32/26/16
f 95/25/15 33/24/15 43/61/15
f 92/63/11 96/72/13 31/64/13
f 97/62/15 43/61/15 17/65/8
f 85/48/17 22/111/30 40/66/16
f 83/67/17 80/50/17 44/51/20
f 37/69/20 42/41/20 109/43/15
f 38/70/16 46/39/16 66/40/17
f 36/71/16 45/37/16 110/38/13
f 96/72/13 98/22/13 39/21/13
f 55/73/17 56/76/17 42/41/20
f 52/74/19 55/73/17 37/69/20
f 90/75/17 57/89/19 47/47/19
f 56/76/17 51/90/18 28/77/25
f 105/54/8 25/108/29 53/78/19
f 82/80/17 81/33/17 50/32/18
f 28/77/25 51/90/18 112/82/10
f 101/83/10 99/17/10 49/19/10
f 100/85/9 48/91/9 18/86/12
f 94/23/14 101/83/10 59/84/10
f 84/44/17 82/80/17 60/81/18
f 83/67/17 23/68/24 57/89/19
f 65/56/17 66/40/17 56/76/17
f 62/57/19 65/56/17 55/73/17
f 66/40/17 61/29/18 51/90/18
f 111/79/9 53/78/19 63/34/19
f 51/90/18 61/29/18 114/31/10
f 102/16/9 58/15/9 48/91/9
f 26/92/27 67/101/17 78/93/17
f 24/58/23 63/34/19 77/95/17
f 63/34/19 53/78/19 76/97/17
f 64/94/18 78/93/17 75/98/17
f 26/92/27 45/37/16 74/100/17
f 19/102/28 69/109/17 73/103/17
f 41/104/20 73/103/17 72/105/17
f 45/37/16 36/71/16 71/107/17
f 75/98/17 69/109/17 19/102/28
f 24/58/23 68/96/17 71/107/17
f 25/108/29 70/110/17 76/97/17
f 72/105/17 70/110/17 25/108/29
f 67/101/17 83/67/17 90/75/17
f 68/96/17 77/95/17 82/80/17
f 77/95/17 76/97/17 81/33/17
f 78/93/17 90/75/17 89/49/17
f 67/101/17 74/100/17 80/50/17
f 69/109/17 85/48/17 88/60/17
f 73/103/17 88/60/17 87/28/17
f 74/100/17 71/107/17 79/46/17
f 89/49/17 85/48/17 69/109/17
f 68/96/17 84/44/17 79/46/17
f 70/110/17 86/27/17 81/33/17
f 87/28/17 86/27/17 70/110/17
f 57/89/19 102/16/9 100/85/9
f 60/81/18 101/83/10 94/23/14
f 47/47/19 100/85/9 91/20/12
f 60/81/18 50/32/18 99/17/10
f 40/66/16 98/22/13 96/72/13
f 44/51/20 97/62/15 93/14/8
f 32/26/16 96/72/13 92/63/11
f 34/45/20 95/25/15 97/62/15
f 20/88/26 94/23/14 95/25/15
f 22/111/30 91/20/12 98/22/13
f 50/32/18 21/112/31 92/63/11
f 23/68/24 93/14/8 102/16/9
f 112/82/10 114/31/10 64/94/18
f 52/74/19 111/79/9 113/36/9
f 106/42/14 112/82/10 54/99/18
f 29/52/21 105/54/8 111/79/9
f 108/59/13 110/38/13 46/39/16
f 107/53/15 109/43/15 41/104/20
f 104/35/12 108/59/13 38/70/16
f 105/54/8 107/53/15 35/106/20
f 109/43/15 106/42/14 19/102/28
f 46/39/16 110/38/13 103/30/11
f 113/36/9 104/35/12 30/55/22
f 114/31/10 103/30/11 26/92/27
