# Blender 4.0.2
# www.blender.org
mtllib backdrop.mtl
o Cube
v 5.000000 -1.000000 3.000000
v 5.000000 3.000000 -1.354822
v -5.000000 -1.000000 3.000000
v -5.000000 3.000000 -1.354818
v 5.000000 -0.850000 -1.354820
v 5.000000 -1.000000 -1.204820
v 5.000000 -0.925000 -1.334724
v 5.000000 -0.979904 -1.279820
v -5.000000 -1.000000 -1.204820
v -5.000000 -0.850000 -1.354820
v -5.000000 -0.979904 -1.279820
v -5.000000 -0.925000 -1.334723
vn -0.0000 0.9914 0.1305
vn -0.0000 1.0000 -0.0000
vn -0.0000 0.1305 0.9914
vn -0.0000 0.5000 0.8660
vn -0.0000 0.8660 0.5000
vn -0.0000 -0.0000 1.0000
vt 0.371162 0.016223
vt 0.000000 0.000000
vt 0.372588 0.957679
vt 0.369991 0.016844
vt 0.378646 0.991791
vt 0.371412 0.991739
vt 0.377197 0.016823
vt 0.379234 0.974761
vt 0.377782 0.016512
vt 0.000090 0.989054
vt 0.000090 0.017931
s 1
g off
usemtl Material.001
f 9/1/1 1/2/2 6/3/1
f 10/4/3 7/5/4 5/6/3
f 12/7/4 8/8/5 7/5/4
f 11/9/5 6/3/1 8/8/5
f 2/10/6 10/4/3 5/6/3
f 9/1/1 3/2/2 1/2/2
f 10/4/3 12/7/4 7/5/4
f 12/7/4 11/9/5 8/8/5
f 11/9/5 9/1/1 6/3/1
f 2/10/6 4/11/6 10/4/3
o Cube.003
v 3.470368 -1.043434 2.004975
v 1.818319 -1.043434 2.004977
v 3.470361 -1.043434 0.352924
v 1.818311 -1.043434 0.352925
v 1.922125 -0.697767 0.456738
v 3.470362 -0.697767 2.004975
v 1.818311 -0.697767 2.004975
v 1.818311 -0.697767 0.352925
v 3.470361 -0.697767 0.352924
v 3.366554 -0.697767 1.901161
v 1.922125 -0.697767 1.901162
v 3.366548 -0.697767 0.456739
v 3.366554 -0.814802 0.456738
v 1.922135 -0.814802 0.456738
v 1.922135 -0.814802 1.901162
v 3.366554 -0.814802 1.901162
vn -0.0000 -0.0000 1.0000
vn -1.0000 -0.0001 -0.0000
vn -0.0000 1.0000 -0.0000
vn 1.0000 0.0001 -0.0000
vn -1.0000 -0.0000 -0.0000
vn 1.0000 -0.0000 -0.0000
vn -0.0000 -0.0000 -1.0000
vt 0.021754 0.621824
vt 0.130327 0.102925
vt 0.130326 0.621826
vt 0.933732 0.174713
vt 0.910696 0.459016
vt 0.910696 0.174713
vt 0.641569 0.504523
vt 0.621136 0.199787
vt 0.641570 0.220219
vt 0.687632 0.220221
vt 0.667198 0.524957
vt 0.667198 0.199787
vt 0.962554 0.174713
vt 0.985589 0.459016
vt 0.962554 0.459016
vt 0.256699 0.225789
vt 0.199543 0.498955
vt 0.199543 0.225789
vt 0.566300 0.524957
vt 0.498263 0.199787
vt 0.566300 0.199787
vt 0.779755 0.504523
vt 0.759322 0.199787
vt 0.779756 0.220221
vt 0.806981 0.459016
vt 0.830017 0.174715
vt 0.830017 0.459018
vt 0.858839 0.174713
vt 0.881874 0.459016
vt 0.858839 0.459017
vt 0.335643 0.149415
vt 0.424760 0.575329
vt 0.335643 0.575329
vt 0.713261 0.220221
vt 0.733694 0.524957
vt 0.713261 0.504524
vt 0.021754 0.102922
vt 0.933732 0.459016
vt 0.621136 0.524957
vt 0.687632 0.504524
vt 0.985589 0.174713
vt 0.256699 0.498956
vt 0.498263 0.524957
vt 0.759322 0.524957
vt 0.806981 0.174714
vt 0.881874 0.174713
vt 0.424760 0.149415
vt 0.733694 0.199787
s 0
g off
usemtl Material.001
f 18/12/7 14/13/7 13/14/7
f 25/15/8 22/16/8 24/17/8
f 23/18/9 18/19/9 22/20/9
f 17/21/9 21/22/9 20/23/9
f 26/24/10 23/25/10 27/26/10
f 16/27/11 19/28/11 20/29/11
f 18/30/12 15/31/12 21/32/12
f 22/33/9 21/34/9 24/35/9
f 26/36/7 24/37/7 17/38/7
f 22/39/13 27/40/13 23/41/13
f 21/42/13 16/43/13 20/44/13
f 17/45/9 19/46/9 23/47/9
f 18/12/7 19/48/7 14/13/7
f 25/15/11 28/49/11 22/16/11
f 23/18/9 19/50/9 18/19/9
f 17/21/9 24/51/9 21/22/9
f 26/24/10 17/52/10 23/25/10
f 16/27/11 14/53/11 19/28/11
f 18/30/12 13/54/12 15/31/12
f 22/33/9 18/55/9 21/34/9
f 26/36/7 25/56/7 24/37/7
f 22/39/13 28/57/13 27/40/13
f 21/42/13 15/58/13 16/43/13
f 17/45/9 20/59/9 19/46/9
