{
  "accessors": [
    {
      "bufferView": 0,
      "byteOffset": 0,
      "componentType": 5123,
      "count": 3072,
      "type": "SCALAR",
      "max": [
        2111
      ],
      "min": [
        0
      ]
    },
    {
      "bufferView": 1,
      "byteOffset": 0,
      "componentType": 5126,
      "count": 2112,
      "type": "VEC3",
      "max": [
        1.0005192756652832,
        1.25,
        1.0000091791152954
      ],
      "min": [
        -1.0005186796188354,
        -1.25,
        -1.0000096559524536
      ],
      "name": "POSITION"
    },
    {
      "bufferView": 1,
      "byteOffset": 12,
      "componentType": 5126,
      "count": 2112,
      "type": "VEC3",
      "max": [
        0.9952889680862427,
        0.9951463341712952,
        0.9951908588409424
      ],
      "min": [
        -0.9952889680862427,
        -0.9951463341712952,
        -0.9951908588409424
      ],
      "name": "NORMAL"
    },
    {
      "bufferView": 1,
      "byteOffset": 24,
      "componentType": 5126,
      "count": 2112,
      "type": "VEC2",
      "max": [
        1,
        2
      ],
      "min": [
        0,
        1
      ],
      "name": "TEXCOORD_0"
    }
  ],
  "asset": {
    "generator": "Aspose.3D 24.9.1",
    "version": "2.0"
  },
  "buffers": [
    {
      "uri": "data:application/octet-stream;base64,",
      "byteLength": 73736
    }
  ],
  "bufferViews": [
    {
      "buffer": 0,
      "byteOffset": 0,
      "byteLength": 6144,
      "target": 34963
    },
    {
      "buffer": 0,
      "byteOffset": 6148,
      "byteLength": 67584,
      "byteStride": 32,
      "target": 34962
    }
  ],
  "meshes": [
    {
      "primitives": [
        {
          "attributes": {
            "POSITION": 1,
            "NORMAL": 2,
            "TEXCOORD_0": 3
          },
          "indices": 0,
          "mode": 4
        }
      ]
    }
  ],
  "nodes": [
    {
      "mesh": 0,
      "name": "Sphere"
    },
    {
      "children": [
        0
      ],
      "name": "Armature"
    }
  ],
  "scene": 0,
  "scenes": [
    {
      "nodes": [
        1
      ]
    }
  ]
}